<svg xmlns="http://www.w3.org/2000/svg" width="30" height="30" viewBox="0 0 30 30" fill="none">
<rect x="0.631947" y="0.632557" width="28.7349" height="28.692" rx="14.346" stroke="white" stroke-width="1.26511"/>
<path d="M11.0726 15.4668H12.7V22.2262C12.7 22.3597 12.8072 22.4678 12.9395 22.4678H15.6989C15.8312 22.4678 15.9384 22.3597 15.9384 22.2262L15.9384 15.4987L17.8093 15.4987C17.931 15.4987 18.0333 15.4066 18.0472 15.2847L18.3314 12.7962C18.3392 12.7278 18.3177 12.6592 18.2723 12.6078C18.2268 12.5564 18.1618 12.527 18.0935 12.527H15.9385V10.9671C15.9385 10.4969 16.1895 10.2584 16.6845 10.2584C16.7551 10.2584 18.0935 10.2584 18.0935 10.2584C18.2258 10.2584 18.333 10.1502 18.333 10.0168V7.73263C18.333 7.59917 18.2258 7.49104 18.0935 7.49104H16.1517C16.138 7.49037 16.1076 7.48926 16.0627 7.48926C15.7258 7.48926 14.5547 7.55599 13.6295 8.41459C12.6045 9.36608 12.747 10.5053 12.781 10.7028V12.5269H11.0725C10.9402 12.5269 10.8331 12.6351 10.8331 12.7685L10.8331 15.2252C10.8331 15.3586 10.9403 15.4668 11.0726 15.4668Z" fill="white"/>
</svg>