<svg xmlns="http://www.w3.org/2000/svg" width="30" height="30" viewBox="0 0 30 30" fill="none">
<rect x="0.631947" y="0.632557" width="28.7349" height="28.6921" rx="14.346" stroke="white" stroke-width="1.26511"/>
<path d="M17.8457 8.53257L17.5106 8H15.483V12.7966L15.4761 17.4818C15.4795 17.5167 15.483 17.5549 15.483 17.5898C15.483 18.7628 14.5365 19.72 13.369 19.72C12.2015 19.72 11.255 18.7663 11.255 17.5898C11.255 16.4167 12.2015 15.4595 13.369 15.4595C13.6108 15.4595 13.8457 15.5047 14.0633 15.5813V13.2422C13.8388 13.2039 13.6073 13.183 13.369 13.183C10.9614 13.1865 8.99939 15.1636 8.99939 17.5932C8.99939 20.0229 10.9614 22 13.3724 22C15.7835 22 17.7455 20.0229 17.7455 17.5932V12.0204C18.6194 12.901 19.749 13.7608 20.9994 14.0358V11.6445C19.6419 11.0388 18.2913 9.24963 17.8457 8.53257Z" fill="white"/>
</svg>