<svg xmlns="http://www.w3.org/2000/svg" width="34" height="35" viewBox="0 0 34 35" fill="none">
<g clip-path="url(#clip0_2025_257)">
<path d="M16.7327 3.96202C21.2047 3.96202 21.7342 3.98163 23.493 4.06009C25.1275 4.13201 26.0101 4.4066 26.5985 4.63543C27.3765 4.93618 27.9388 5.30231 28.5207 5.88419C29.1091 6.47261 29.4687 7.02834 29.7694 7.80637C29.9983 8.39479 30.2729 9.28395 30.3448 10.9119C30.4232 12.6772 30.4429 13.2068 30.4429 17.6722C30.4429 22.1442 30.4232 22.6738 30.3448 24.4325C30.2729 26.067 29.9983 26.9496 29.7694 27.5381C29.4687 28.3161 29.1026 28.8784 28.5207 29.4602C27.9323 30.0487 27.3765 30.4082 26.5985 30.709C26.0101 30.9378 25.1209 31.2124 23.493 31.2843C21.7277 31.3628 21.1981 31.3824 16.7327 31.3824C12.2607 31.3824 11.7311 31.3628 9.97236 31.2843C8.33786 31.2124 7.45523 30.9378 6.86681 30.709C6.08878 30.4082 5.52651 30.0421 4.94463 29.4602C4.35621 28.8718 3.99662 28.3161 3.69587 27.5381C3.46704 26.9496 3.19245 26.0605 3.12053 24.4325C3.04207 22.6673 3.02246 22.1377 3.02246 17.6722C3.02246 13.2002 3.04207 12.6706 3.12053 10.9119C3.19245 9.27742 3.46704 8.39479 3.69587 7.80637C3.99662 7.02834 4.36275 6.46607 4.94463 5.88419C5.53305 5.29577 6.08878 4.93618 6.86681 4.63543C7.45523 4.4066 8.34439 4.13201 9.97236 4.06009C11.7311 3.98163 12.2607 3.96202 16.7327 3.96202ZM16.7327 0.947998C12.1887 0.947998 11.6199 0.967612 9.83506 1.04607C8.05672 1.12452 6.83412 1.4122 5.77496 1.82409C4.67004 2.2556 3.7351 2.82441 2.8067 3.75934C1.87177 4.68774 1.30296 5.62267 0.871454 6.72106C0.45956 7.78675 0.171887 9.00282 0.0934314 10.7812C0.0149753 12.5726 -0.00463867 13.1414 -0.00463867 17.6853C-0.00463867 22.2292 0.0149753 22.798 0.0934314 24.5829C0.171887 26.3612 0.45956 27.5838 0.871454 28.643C1.30296 29.7479 1.87177 30.6828 2.8067 31.6112C3.7351 32.5396 4.67004 33.115 5.76842 33.54C6.83412 33.9518 8.05018 34.2395 9.82852 34.318C11.6134 34.3964 12.1822 34.416 16.7261 34.416C21.27 34.416 21.8388 34.3964 23.6237 34.318C25.4021 34.2395 26.6247 33.9518 27.6838 33.54C28.7822 33.115 29.7171 32.5396 30.6455 31.6112C31.5739 30.6828 32.1493 29.7479 32.5742 28.6495C32.9861 27.5838 33.2738 26.3678 33.3523 24.5894C33.4307 22.8045 33.4503 22.2357 33.4503 17.6918C33.4503 13.1479 33.4307 12.5791 33.3523 10.7942C33.2738 9.0159 32.9861 7.79329 32.5742 6.73413C32.1623 5.62267 31.5935 4.68774 30.6586 3.75934C29.7302 2.83094 28.7953 2.2556 27.6969 1.83063C26.6312 1.41873 25.4151 1.13106 23.6368 1.05261C21.8454 0.967612 21.2766 0.947998 16.7327 0.947998Z" fill="white"/>
<path d="M16.7315 9.08813C11.9849 9.08813 8.13403 12.939 8.13403 17.6856C8.13403 22.4322 11.9849 26.2831 16.7315 26.2831C21.4781 26.2831 25.329 22.4322 25.329 17.6856C25.329 12.939 21.4781 9.08813 16.7315 9.08813ZM16.7315 23.2625C13.6521 23.2625 11.1546 20.765 11.1546 17.6856C11.1546 14.6062 13.6521 12.1087 16.7315 12.1087C19.8109 12.1087 22.3084 14.6062 22.3084 17.6856C22.3084 20.765 19.8109 23.2625 16.7315 23.2625Z" fill="white"/>
<path d="M27.6776 8.74814C27.6776 9.8596 26.7754 10.7553 25.6704 10.7553C24.559 10.7553 23.6633 9.85306 23.6633 8.74814C23.6633 7.63668 24.5655 6.74097 25.6704 6.74097C26.7754 6.74097 27.6776 7.64321 27.6776 8.74814Z" fill="white"/>
</g>
<defs>
<clipPath id="clip0_2025_257">
<rect width="33.4746" height="33.4746" fill="white" transform="translate(-0.0065918 0.94751)"/>
</clipPath>
</defs>
</svg>