<svg xmlns="http://www.w3.org/2000/svg" width="30" height="30" viewBox="0 0 30 30" fill="none">
<rect x="0.631947" y="0.632557" width="28.7349" height="28.692" rx="14.346" stroke="white" stroke-width="1.26511"/>
<path d="M22.3505 11.9839C22.3505 11.9839 22.2042 10.9513 21.7533 10.4982C21.1824 9.90191 20.543 9.89817 20.2505 9.86353C18.1533 9.71094 15.0034 9.71094 15.0034 9.71094H14.9977C14.9977 9.71094 11.8487 9.71094 9.75062 9.86353C9.45718 9.89911 8.81875 9.90191 8.24782 10.4982C7.79689 10.9513 7.65346 11.9839 7.65346 11.9839C7.65346 11.9839 7.50439 13.1953 7.50439 14.4095V15.5451C7.50439 16.7565 7.65346 17.9707 7.65346 17.9707C7.65346 17.9707 7.7997 19.0032 8.24782 19.4573C8.81875 20.0536 9.56875 20.034 9.90343 20.0976C11.1044 20.2118 15.0043 20.2465 15.0043 20.2465C15.0043 20.2465 18.1571 20.2408 20.2542 20.0911C20.5477 20.0564 21.1861 20.0527 21.757 19.4563C22.208 19.0032 22.3542 17.9697 22.3542 17.9697C22.3542 17.9697 22.5033 16.7583 22.5033 15.5441V14.4086C22.5005 13.1972 22.3514 11.983 22.3514 11.983L22.3505 11.9839ZM13.45 16.9222V12.7123L17.5018 14.8242L13.45 16.9222Z" fill="white"/>
</svg>