<svg xmlns="http://www.w3.org/2000/svg" width="30" height="30" viewBox="0 0 30 30" fill="none">
<rect x="0.631947" y="0.632557" width="28.7349" height="28.6921" rx="14.346" stroke="white" stroke-width="1.26511"/>
<path d="M18.2381 14.5173C18.2381 16.0368 17.0017 17.2732 15.4821 17.2732C13.9626 17.2732 12.7262 16.0368 12.7262 14.5173C12.7262 12.9977 13.9626 11.7613 15.4821 11.7613C17.0017 11.7613 18.2381 12.9976 18.2381 14.5173ZM22.9994 10.75V18.25C22.9994 20.3177 21.3171 22 19.2494 22H11.7494C9.68164 22 7.99939 20.3177 7.99939 18.25V10.75C7.99939 8.68225 9.68164 7 11.7494 7H19.2494C21.3171 7 22.9994 8.68225 22.9994 10.75ZM19.5899 14.5173C19.5899 12.2522 17.7472 10.4095 15.4821 10.4095C13.2171 10.4095 11.3744 12.2522 11.3744 14.5173C11.3744 16.7823 13.2171 18.625 15.4821 18.625C17.7472 18.625 19.5899 16.7823 19.5899 14.5173ZM21.1244 9.8515C21.1244 9.31225 20.6871 8.875 20.1479 8.875C19.6086 8.875 19.1714 9.31225 19.1714 9.8515C19.1714 10.3907 19.6086 10.828 20.1479 10.828C20.6871 10.8279 21.1244 10.3907 21.1244 9.8515Z" fill="white"/>
</svg>