<svg width="227" height="57" viewBox="0 0 227 57" fill="none" xmlns="http://www.w3.org/2000/svg">
<g clip-path="url(#clip0_2094_29)">
<path d="M74.5918 38.194L78.8127 14.3208H94.1072L93.2609 19.1052H83.3358L82.5193 23.7239H91.9845L91.1681 28.2393H81.7165L80.8266 33.3742H91.7124L90.8687 38.194H74.5918Z" fill="#FFFFFF"/>
<path d="M91.0375 38.3978H74.3496L78.6495 14.1279H94.3576L93.4405 19.3199H83.5073L82.7697 23.531H92.224L91.3396 28.4486H81.888L81.0716 33.1651H91.9437L91.0375 38.3978ZM74.8395 37.9902H90.6973L91.4702 33.578H80.5953L81.5424 28.0465H90.9994L91.7342 23.9386H82.2826L83.1643 18.9123H93.0894L93.8623 14.5355H78.9842L74.8395 37.9902Z" fill="#FFFFFF"/>
<path d="M110.918 12.7124H116.32L111.797 38.194H106.833L107.238 35.9009H107.138C106.544 36.7636 105.728 37.4506 104.775 37.8897C103.728 38.3746 102.585 38.617 101.431 38.5988C100.431 38.6134 99.4382 38.4286 98.5107 38.0554C97.6792 37.7203 96.9307 37.2086 96.3173 36.5557C95.7126 35.8986 95.2495 35.1246 94.9565 34.2817C94.6317 33.35 94.4715 32.3691 94.483 31.3828C94.4734 30.0042 94.7074 28.6348 95.1743 27.3373C95.6073 26.1285 96.2595 25.0095 97.0983 24.0363C97.9136 23.0958 98.9141 22.3329 100.037 21.7949C101.201 21.2414 102.477 20.9625 103.766 20.9799C104.877 20.9516 105.978 21.1941 106.974 21.6862C107.814 22.1027 108.516 22.7528 108.994 23.5582H109.062L110.918 12.7124ZM99.8442 30.6791C99.8133 31.601 100.127 32.5015 100.723 33.2058C101.307 33.8796 102.174 34.2165 103.322 34.2165C103.976 34.2207 104.623 34.0767 105.214 33.7953C105.795 33.5176 106.313 33.1216 106.732 32.6325C107.167 32.1252 107.505 31.5422 107.728 30.9127C107.966 30.2541 108.085 29.5588 108.082 28.8588C108.117 27.9189 107.778 27.0035 107.138 26.3131C106.804 25.9764 106.403 25.7139 105.961 25.5425C105.519 25.3712 105.045 25.2949 104.571 25.3187C103.896 25.3095 103.227 25.4535 102.615 25.7398C102.042 26.0105 101.535 26.4016 101.129 26.8863C100.712 27.3909 100.391 27.9673 100.182 28.5871C99.9541 29.261 99.8401 29.9679 99.8442 30.6791Z" fill="#FFFFFF"/>
<path d="M101.433 38.8023C100.409 38.8192 99.3914 38.6346 98.4389 38.2589C97.5798 37.9115 96.8064 37.3822 96.172 36.7076C95.5477 36.0296 95.0681 35.2318 94.7623 34.363C94.431 33.4092 94.2671 32.4055 94.2778 31.3961C94.2662 29.9908 94.5039 28.5945 94.98 27.2719C95.422 26.0385 96.0871 24.8966 96.9421 23.903C97.7742 22.9449 98.7927 22.1657 99.9357 21.6127C101.125 21.0469 102.428 20.758 103.746 20.7677C104.89 20.7393 106.024 20.9902 107.05 21.4986C107.792 21.8743 108.433 22.4209 108.922 23.0934L110.732 12.4976H116.55L111.954 38.3866H106.592L106.924 36.5066C106.355 37.1643 105.653 37.6948 104.864 38.0633C103.79 38.5638 102.617 38.8163 101.433 38.8023ZM103.762 21.1752C102.502 21.1663 101.256 21.445 100.121 21.9903C99.0254 22.5203 98.0487 23.2661 97.2497 24.1828C96.4272 25.1376 95.7879 26.2354 95.3637 27.4213C94.9044 28.696 94.6741 30.0415 94.6833 31.3961C94.6724 32.3583 94.828 33.3151 95.1433 34.2244C95.4303 35.042 95.8813 35.7927 96.4686 36.4305C97.0625 37.0619 97.7868 37.557 98.5913 37.8813C99.4945 38.2415 100.46 38.4197 101.433 38.4057C102.559 38.4245 103.675 38.1895 104.698 37.7183C105.617 37.2923 106.405 36.6292 106.982 35.7975L107.041 35.7078H107.499L107.093 38.0008H111.641L116.093 12.9268H111.094L109.235 23.7807H108.878L108.818 23.6775C108.359 22.9006 107.684 22.2731 106.875 21.8708C105.91 21.39 104.841 21.1513 103.762 21.1752ZM103.324 34.4254C102.118 34.4254 101.193 34.0614 100.57 33.3387C99.9423 32.5968 99.6117 31.6494 99.6418 30.6789C99.6364 29.9452 99.7551 29.2159 99.9929 28.5217C100.208 27.8781 100.541 27.2796 100.973 26.7557C101.398 26.2493 101.928 25.8405 102.527 25.5576C103.166 25.2573 103.866 25.1059 104.573 25.1147C105.076 25.09 105.578 25.1713 106.047 25.3534C106.516 25.5355 106.941 25.8143 107.294 26.1716C107.971 26.8997 108.331 27.8659 108.296 28.8586C108.299 29.5825 108.175 30.3014 107.931 30.9832C107.698 31.635 107.347 32.2389 106.897 32.7654C106.458 33.2752 105.918 33.6887 105.311 33.9799C104.691 34.2764 104.011 34.4287 103.324 34.4254ZM104.573 25.5277C103.927 25.5192 103.288 25.6567 102.703 25.9298C102.159 26.1869 101.675 26.5574 101.286 27.0165C100.886 27.5003 100.578 28.0527 100.377 28.6466C100.157 29.2988 100.047 29.9827 100.05 30.6707C100.021 31.5436 100.316 32.3963 100.88 33.0643C101.424 33.6892 102.241 34.0043 103.329 34.0043C103.953 34.0083 104.569 33.8708 105.131 33.6022C105.688 33.3368 106.182 32.9583 106.584 32.491C107.003 32.0028 107.329 31.442 107.545 30.8364C107.772 30.199 107.887 29.5271 107.885 28.8504C107.918 27.963 107.598 27.0986 106.995 26.446C106.679 26.1306 106.3 25.8853 105.883 25.7261C105.465 25.5669 105.019 25.4975 104.573 25.5222V25.5277Z" fill="#FFFFFF"/>
<path d="M127.493 35.7675C126.947 36.6036 126.214 37.3013 125.351 37.8052C124.405 38.3611 123.324 38.6433 122.227 38.6202C121.408 38.6386 120.593 38.4955 119.829 38.1991C119.197 37.9479 118.627 37.5632 118.158 37.0716C117.723 36.6045 117.395 36.0482 117.197 35.4415C116.993 34.8162 116.89 34.1622 116.893 33.5043C116.893 33.2109 116.893 32.9121 116.925 32.6105C116.95 32.299 116.996 31.9895 117.061 31.684L118.852 21.4034H124.295L122.662 30.5022C122.619 30.7521 122.583 30.9912 122.561 31.2276C122.54 31.464 122.529 31.6949 122.529 31.9177C122.516 32.4855 122.688 33.042 123.019 33.5043C123.343 33.9535 123.923 34.1781 124.758 34.1781C125.219 34.1847 125.676 34.0803 126.088 33.8738C126.482 33.6713 126.832 33.3945 127.12 33.0588C127.423 32.7036 127.673 32.3064 127.863 31.8797C128.066 31.4273 128.213 30.952 128.301 30.4642L129.934 21.3979H135.333L132.971 34.7106C132.882 35.1363 132.787 35.6869 132.685 36.3625C132.584 37.0381 132.51 37.6449 132.465 38.1828H127.324C127.346 37.9111 127.387 37.5253 127.444 37.02C127.501 36.5146 127.55 36.0935 127.596 35.7566L127.493 35.7675Z" fill="#FFFFFF"/>
<path d="M122.228 38.8349C121.381 38.8529 120.54 38.7043 119.751 38.3974C119.093 38.1344 118.499 37.7332 118.009 37.221C117.553 36.7301 117.21 36.1461 117.002 35.5094C116.793 34.8634 116.688 34.1886 116.689 33.5098C116.689 33.2109 116.689 32.9039 116.725 32.5996C116.748 32.2789 116.795 31.9602 116.864 31.646L118.679 21.2051H124.53L122.867 30.5457C122.824 30.7875 122.791 31.0239 122.769 31.2521C122.747 31.4803 122.737 31.7085 122.737 31.9231C122.725 32.4476 122.882 32.962 123.186 33.3902C123.471 33.7815 124.002 33.9798 124.761 33.9798C125.19 33.9898 125.615 33.8966 126 33.7081C126.369 33.5195 126.698 33.2611 126.968 32.9474C127.26 32.6077 127.499 32.2268 127.679 31.8172C127.875 31.3834 128.018 30.9272 128.103 30.4587L129.755 21.2214H135.571L133.165 34.7731C133.075 35.1997 132.98 35.7512 132.879 36.4196C132.779 37.0879 132.705 37.6992 132.662 38.2263L132.645 38.4137H127.104L127.123 38.1937C127.145 37.922 127.183 37.5335 127.24 37.0254C127.268 36.7945 127.289 36.5826 127.314 36.3869C126.796 37.0303 126.167 37.5751 125.455 37.9953C124.478 38.5676 123.361 38.8581 122.228 38.8349ZM119.024 21.6126L117.264 31.7221C117.199 32.0212 117.154 32.3244 117.13 32.6295C117.109 32.9266 117.098 33.22 117.098 33.5098C117.095 34.1463 117.194 34.7792 117.392 35.3844C117.58 35.9637 117.893 36.4949 118.309 36.9412C118.758 37.4143 119.303 37.785 119.909 38.028C120.648 38.3131 121.436 38.4507 122.228 38.4328C123.288 38.4512 124.333 38.1756 125.246 37.6367C126.082 37.1477 126.792 36.4715 127.322 35.6615L127.382 35.5692H127.828L127.798 35.8001C127.752 36.1343 127.703 36.5554 127.646 37.058C127.605 37.4384 127.573 37.7481 127.548 37.9953H132.262C132.308 37.5036 132.376 36.9494 132.466 36.3489C132.569 35.6724 132.667 35.1128 132.757 34.6862L135.076 21.618H130.084L128.495 30.5158C128.404 31.0207 128.252 31.5125 128.041 31.9802C127.844 32.4249 127.584 32.8387 127.268 33.2082C126.962 33.5602 126.593 33.8515 126.179 34.0667C125.737 34.2872 125.248 34.3989 124.753 34.3928C123.852 34.3928 123.213 34.1374 122.848 33.6348C122.493 33.1375 122.308 32.5392 122.32 31.9286C122.32 31.6976 122.32 31.4586 122.353 31.2195C122.385 30.9804 122.413 30.7304 122.459 30.4778L124.035 21.618L119.024 21.6126Z" fill="#FFFFFF"/>
<path d="M151.06 26.0029C150.515 24.7912 149.103 23.9136 147.38 23.9136C143.298 23.9136 140.392 27.4184 140.392 31.6322C140.392 34.5312 142.283 36.6884 145.489 36.6884C146.368 36.6974 147.238 36.5185 148.042 36.1637C148.845 35.809 149.564 35.2866 150.148 34.6317L151.601 35.8787C149.968 37.5306 147.987 38.6092 145.32 38.6092C140.83 38.6092 137.994 35.8787 137.994 31.8333C137.994 26.4403 141.742 22.0254 147.448 22.0254C149.778 22.0254 152.039 22.8676 153.052 24.6879L151.06 26.0029Z" fill="#FFFFFF"/>
<path d="M145.323 38.8024C140.751 38.8024 137.793 36.0637 137.793 31.8227C137.793 26.0222 141.856 21.811 147.451 21.811C150.107 21.811 152.268 22.8462 153.234 24.5795L153.324 24.7453L150.976 26.2966L150.878 26.0765C150.333 24.8784 148.973 24.1068 147.383 24.1068C143.516 24.1068 140.599 27.3372 140.599 31.6217C140.599 34.5695 142.52 36.474 145.497 36.474C146.348 36.4807 147.189 36.3066 147.967 35.9632C148.745 35.6199 149.44 35.1151 150.007 34.4825L150.14 34.3385L151.906 35.8546L151.754 36.0094C149.901 37.8895 147.8 38.8024 145.323 38.8024ZM147.451 22.2294C142.093 22.2294 138.198 26.2694 138.198 31.8336C138.198 35.8247 140.996 38.4057 145.32 38.4057C147.617 38.4057 149.577 37.5906 151.308 35.8899L150.17 34.9145C149.565 35.5437 148.838 36.042 148.032 36.3785C147.226 36.715 146.36 36.8825 145.486 36.8707C142.316 36.8707 140.185 34.7569 140.185 31.6108C140.185 27.1687 143.345 23.6884 147.378 23.6884C149.035 23.6884 150.48 24.4654 151.139 25.6853L152.772 24.5986C151.855 23.1124 149.865 22.2186 147.446 22.2186L147.451 22.2294Z" fill="#FFFFFF"/>
<path d="M166.659 27.0382C166.659 24.7805 165.273 23.903 162.944 23.903C161.133 23.9644 159.397 24.6346 158.015 25.8048L157.003 24.286C158.522 22.9276 160.987 22.0283 163.181 22.0283C166.174 22.0283 168.784 23.3868 168.784 26.5791C168.771 27.1426 168.726 27.705 168.651 28.2635L167.502 34.6672C167.295 35.8343 167.17 37.0145 167.129 38.1992H165.105C165.108 37.3413 165.175 36.485 165.306 35.6371H165.241C163.417 37.7264 161.763 38.5034 159.128 38.5034C157.003 38.5034 154.336 37.49 154.336 34.4281C154.336 29.3747 160.682 28.5325 166.49 28.5325C166.59 28.0403 166.646 27.5403 166.659 27.0382ZM165.646 30.2387C161.627 30.2387 156.698 30.8473 156.698 34.1483C156.698 36.137 158.331 36.6777 159.939 36.6777C163.181 36.6777 165.442 34.3521 165.948 31.5537L166.185 30.2387H165.646Z" fill="#FFFFFF"/>
<path d="M159.129 38.7018C156.824 38.7018 154.133 37.5798 154.133 34.4173C154.133 29.008 161.034 28.3315 166.317 28.3179C166.4 27.8963 166.447 27.4681 166.455 27.0383C166.455 25.0387 165.34 24.1068 162.945 24.1068C160.991 24.1068 159.135 25.0984 158.15 25.9461L157.973 26.0955L156.735 24.2399L156.868 24.1204C158.425 22.7402 160.95 21.811 163.182 21.811C165.99 21.811 168.989 23.0608 168.989 26.5656C168.976 27.14 168.931 27.7133 168.853 28.2826L167.705 34.6972C167.499 35.8543 167.375 37.0246 167.335 38.1992V38.403H164.902V38.1992C164.903 37.5236 164.945 36.8486 165.027 36.1779C163.288 38.0063 161.655 38.7018 159.129 38.7018ZM166.477 28.7255C158.313 28.7255 154.527 30.5349 154.527 34.4309C154.527 37.2918 156.998 38.3079 159.116 38.3079C161.682 38.3079 163.296 37.5499 165.073 35.5122L165.133 35.4416H165.533L165.498 35.6779C165.377 36.4476 165.311 37.2247 165.299 38.0036H166.915C166.969 36.874 167.094 35.7488 167.288 34.6347L168.458 28.2147C168.533 27.6679 168.577 27.1173 168.589 26.5656C168.589 23.8487 166.57 22.2186 163.19 22.2186C161.044 22.2511 158.968 22.9861 157.282 24.3106L158.068 25.4897C159.157 24.6339 160.999 23.6993 162.953 23.6993C165.552 23.6993 166.872 24.8213 166.872 27.0383C166.86 27.5477 166.803 28.0551 166.7 28.5543L166.67 28.7255H166.477ZM159.94 36.8707C157.72 36.8707 156.484 35.9116 156.484 34.1538C156.484 31.4369 159.562 30.0404 165.636 30.0404H166.42L166.148 31.5945C165.587 34.6972 163.032 36.8707 159.94 36.8707ZM165.655 30.4317C159.853 30.4317 156.911 31.6787 156.911 34.1375C156.911 36.0583 158.563 36.4631 159.949 36.4631C162.841 36.4631 165.228 34.4255 165.756 31.5076L165.949 30.4208L165.655 30.4317Z" fill="#FFFFFF"/>
<path d="M181.479 24.308H177.19L175.535 33.5454C175.474 33.9045 175.44 34.2679 175.435 34.6322C175.435 36.1156 176.251 36.4851 177.394 36.4851C178.034 36.4851 178.913 36.284 179.318 35.9797L179.046 37.9359C178.472 38.2374 177.492 38.4059 176.444 38.4059C174.959 38.4059 173.07 37.8 173.07 35.2733C173.072 34.9089 173.106 34.5453 173.171 34.1866L174.926 24.3108H171.66L172.03 22.409H175.233L176.009 17.9614H178.271L177.495 22.409H181.849L181.479 24.308Z" fill="#FFFFFF"/>
<path d="M176.447 38.5983C175.359 38.5983 172.868 38.275 172.868 35.262C172.872 34.8885 172.906 34.5159 172.972 34.1481L174.686 24.5113H171.404L171.859 22.2156H175.062L175.838 17.7681H178.526L177.751 22.2156H182.105L181.653 24.5113H177.362L175.729 33.5776C175.669 33.9222 175.636 34.271 175.631 34.6208C175.631 35.7918 176.14 36.27 177.386 36.27C178.017 36.276 178.638 36.1158 179.188 35.8054L179.588 35.512L179.237 38.055L179.144 38.1039C178.548 38.419 177.566 38.5983 176.447 38.5983ZM171.902 24.1011H175.168L173.372 34.216C173.31 34.5604 173.277 34.9094 173.274 35.2593C173.274 37.8077 175.261 38.1881 176.444 38.1881C177.268 38.2158 178.089 38.0791 178.858 37.786L179.057 36.3406C178.527 36.5537 177.963 36.667 177.391 36.6748C176.463 36.6748 175.214 36.4629 175.214 34.6181C175.219 34.2456 175.253 33.8739 175.318 33.5069L177.019 24.1011H181.31L181.602 22.6204H177.247L178.023 18.1729H176.175L175.399 22.6204H172.188L171.902 24.1011Z" fill="#FFFFFF"/>
<path d="M185.123 38.1935H182.861L185.664 22.4193H187.926L185.123 38.1935ZM187.689 17.9365C187.486 17.9467 187.282 17.9147 187.091 17.8426C186.901 17.7704 186.727 17.6597 186.581 17.5173C186.436 17.3749 186.321 17.2039 186.245 17.0152C186.168 16.8264 186.132 16.6239 186.138 16.4205C186.136 15.988 186.305 15.5723 186.608 15.2632C186.911 14.9541 187.324 14.7765 187.757 14.7686C187.961 14.7631 188.164 14.7997 188.353 14.8762C188.542 14.9527 188.713 15.0674 188.856 15.2131C188.999 15.3587 189.109 15.5322 189.182 15.7227C189.254 15.9132 189.286 16.1165 189.276 16.3199C189.277 16.7435 189.112 17.1506 188.815 17.4532C188.518 17.7557 188.113 17.9293 187.689 17.9365Z" fill="#FFFFFF"/>
<path d="M185.293 38.3973H182.607L185.481 22.2156H188.159L185.293 38.3973ZM183.116 37.9898H184.964L187.686 22.6232H185.838L183.116 37.9898ZM187.699 18.1403C187.469 18.1505 187.239 18.1132 187.023 18.0308C186.808 17.9483 186.612 17.8226 186.447 17.6613C186.283 17.5 186.153 17.3066 186.066 17.0931C185.98 16.8797 185.938 16.6508 185.944 16.4205C185.94 15.9332 186.129 15.464 186.471 15.1161C186.813 14.7682 187.279 14.5699 187.767 14.5649C187.998 14.5595 188.227 14.6014 188.441 14.6882C188.655 14.7749 188.849 14.9046 189.01 15.0692C189.172 15.2337 189.298 15.4297 189.38 15.6449C189.463 15.86 189.5 16.0898 189.49 16.32C189.492 16.5577 189.447 16.7935 189.357 17.0137C189.267 17.234 189.135 17.4344 188.968 17.6035C188.8 17.7726 188.601 17.907 188.382 17.9992C188.162 18.0913 187.926 18.1393 187.688 18.1403H187.699ZM187.767 14.9725C187.389 14.9824 187.029 15.1392 186.765 15.4096C186.501 15.6801 186.353 16.0427 186.352 16.4205C186.346 16.5974 186.376 16.7736 186.442 16.9379C186.508 17.1022 186.608 17.2509 186.735 17.3744C186.861 17.498 187.013 17.5938 187.179 17.6555C187.345 17.7172 187.522 17.7435 187.699 17.7328C188.069 17.7243 188.42 17.5717 188.679 17.3077C188.937 17.0436 189.082 16.6891 189.082 16.32C189.093 16.1423 189.066 15.9643 189.003 15.7976C188.941 15.6308 188.844 15.479 188.719 15.352C188.594 15.225 188.444 15.1255 188.278 15.0602C188.112 14.9948 187.935 14.9649 187.756 14.9725H187.767Z" fill="#FFFFFF"/>
<path d="M191.199 31.7546C191.199 26.4649 195.115 22.0146 200.585 22.0146C204.874 22.0146 207.879 24.7804 207.879 28.8231C207.879 34.2161 203.995 38.6039 198.493 38.6039C194.239 38.5984 191.199 35.8001 191.199 31.7546ZM200.452 23.9029C196.501 23.9029 193.597 27.4756 193.597 31.6215C193.597 34.5204 195.502 36.6776 198.629 36.6776C202.646 36.6776 205.514 33.1457 205.514 28.959C205.514 26.0927 203.625 23.9029 200.452 23.9029Z" fill="#FFFFFF"/>
<path d="M198.496 38.8024C194.081 38.8024 190.998 35.9035 190.998 31.7548C190.998 26.1798 195.211 21.811 200.588 21.811C205.003 21.811 208.086 24.6964 208.086 28.8233C208.086 34.5124 203.963 38.8024 198.496 38.8024ZM200.588 22.2294C195.439 22.2294 191.406 26.4189 191.406 31.7657C191.406 35.6752 194.324 38.4057 198.482 38.4057C203.715 38.4057 207.664 34.2896 207.664 28.8341C207.678 24.9354 204.763 22.2186 200.588 22.2186V22.2294ZM198.632 36.9005C195.499 36.9005 193.396 34.7868 193.396 31.6407C193.396 27.1986 196.495 23.7183 200.455 23.7183C203.604 23.7183 205.721 25.832 205.721 28.9781C205.721 33.4012 202.608 36.8707 198.632 36.8707V36.9005ZM200.455 24.1312C196.724 24.1312 193.804 27.4323 193.804 31.6461C193.804 34.5477 195.744 36.4985 198.632 36.4985C202.379 36.4985 205.313 33.1974 205.313 28.9836C205.313 26.0575 203.362 24.1014 200.455 24.1014V24.1312Z" fill="#FFFFFF"/>
<path d="M216.252 22.4195C216.151 23.2617 216.015 24.4408 215.881 25.1173H215.947C216.515 24.1897 217.307 23.4195 218.251 22.8773C219.195 22.3352 220.26 22.0386 221.349 22.0146C224.759 22.0146 226.792 23.8703 226.792 26.8344C226.782 27.4005 226.726 27.9648 226.623 28.5216L224.9 38.1936H222.639L224.19 29.4643C224.32 28.8092 224.388 28.1434 224.394 27.4756C224.394 25.2858 223.482 23.9029 220.883 23.9029C218.453 23.9029 215.819 25.8916 215.076 30.1055L213.658 38.1936H211.396L213.557 25.8916C213.726 25.0494 213.963 23.4981 214.063 22.4195H216.252Z" fill="#FFFFFF"/>
<path d="M225.062 38.3975H222.384L223.982 29.4319C224.108 28.7882 224.174 28.1343 224.18 27.4784C224.18 25.18 223.13 24.1095 220.874 24.1095C218.618 24.1095 216.002 25.976 215.268 30.1437L213.82 38.4003H211.145L213.36 25.8565C213.523 25.0414 213.763 23.4901 213.863 22.4006L213.882 22.2158H216.492L216.435 22.6913C216.37 23.2347 216.296 23.8568 216.217 24.3975C216.825 23.6093 217.603 22.9677 218.493 22.52C219.383 22.0723 220.362 21.83 221.358 21.811C224.839 21.811 227 23.7373 227 26.8345C226.989 27.4115 226.932 27.9867 226.828 28.5543L225.062 38.3975ZM222.885 37.99H224.733L226.425 28.481C226.526 27.9367 226.581 27.3851 226.591 26.8318C226.591 23.9411 224.635 22.2131 221.358 22.2131C220.304 22.238 219.274 22.5264 218.36 23.0518C217.447 23.5772 216.68 24.323 216.13 25.2207L216.07 25.3158H215.64L215.689 25.0713C215.809 24.4681 215.932 23.4412 216.03 22.6261V22.6071H214.25C214.138 23.6938 213.912 25.1392 213.757 25.9162L211.64 37.9737H213.488L214.876 30.054C215.651 25.6527 218.452 23.683 220.885 23.683C223.383 23.683 224.599 24.9191 224.599 27.4594C224.593 28.1399 224.524 28.8185 224.392 29.4862L222.885 37.99Z" fill="#FFFFFF"/>
<path d="M11.8648 6.58012C11.8648 6.58012 36.8749 6.46872 35.0542 29.4969C35.0542 29.4969 34.9835 30.2631 34.9644 30.4261C35.0025 30.1245 40.2386 1.23059 40.4236 0.203613H0.195312V56.7961H2.86232L11.8648 6.58012Z" fill="#FFFFFF"/>
<path d="M3.0344 57H0V0H40.6692L40.6256 0.239086C40.4052 1.45625 35.2236 30.0459 35.1828 30.4507L34.7773 30.4018C34.7963 30.2388 34.8671 29.4781 34.8671 29.4781C35.3733 23.0554 33.8166 17.8444 30.2406 13.9919C24.0085 7.28937 13.5147 6.81664 12.056 6.78403L3.0344 57ZM0.400052 56.5925H2.69422L11.7022 6.3765H11.8764C12.1131 6.3765 23.769 6.44714 30.5291 13.7121C33.7268 17.1489 35.3488 21.6399 35.3624 27.0818C36.6469 19.9473 39.6187 3.54008 40.1875 0.402096H0.400052V56.5925Z" fill="#FFFFFF"/>
<path d="M54.0505 0.203613C53.8219 1.48326 44.9963 50.5391 44.9963 50.5391C42.5144 50.6831 20.5034 51.2401 21.5021 28.8476C21.5021 28.8069 17.5533 51.0091 16.5273 56.7961H56.8781V0.203613H54.0505Z" fill="#FFFFFF"/>
<path d="M57.085 57H16.2852L16.326 56.7609C16.8403 53.8702 18.0786 46.8824 19.1944 40.6173C19.7387 37.4847 20.283 34.5342 20.6612 32.3661C20.8545 31.2794 21.0123 30.3937 21.1239 29.7742C21.2055 29.3232 21.2545 29.0515 21.2953 28.8885C21.294 28.8722 21.294 28.8559 21.2953 28.8396C21.3498 28.6413 21.3906 28.6413 21.4885 28.644H21.7008V28.8559C21.4069 35.5313 23.1486 40.7748 26.8715 44.448C33.1309 50.5963 43.0859 50.4252 44.833 50.3437C44.8575 50.1725 44.9038 49.9144 44.9746 49.5286L53.8846 0H57.0877L57.085 57ZM16.7723 56.5925H56.6768V0.407531H54.2275L51.8761 13.4784C49.2254 28.2066 45.2222 50.4659 45.2032 50.5719L45.1759 50.7322H45.0127C43.8234 50.8028 33.1989 51.2212 26.6021 44.7306C23.2439 41.4269 21.4613 36.8897 21.2844 31.2196C20.4408 35.9225 18.5059 46.8742 16.7723 56.5925Z" fill="#FFFFFF"/>
</g>
<defs>
<clipPath id="clip0_2094_29">
<rect width="227" height="57" fill="white"/>
</clipPath>
</defs>
</svg>
