<svg width="75" height="63" viewBox="0 0 75 63" fill="none" xmlns="http://www.w3.org/2000/svg">
<path d="M68.9833 6.62872L69.3217 6.29559L69.0065 5.94044L65.3683 1.84189L65.0488 1.48193L64.6769 1.78754C58.9006 6.53471 53.9183 12.6538 49.7257 20.1345L49.7247 20.1363C44.9674 28.7067 42.5721 36.9234 42.5721 44.7796C42.5721 49.3489 44.0779 53.2835 47.0886 56.556L47.089 56.5564C50.2259 59.9578 54.0262 61.6738 58.4643 61.6738C62.9624 61.6738 66.7944 59.9595 69.9329 56.5564L69.9334 56.556C72.9412 53.2866 74.447 49.3564 74.4498 44.7927C74.7618 38.7933 73.621 34.1899 70.9223 31.0838C68.2964 28.0613 64.2777 26.5495 58.9699 26.46C59.1236 19.6907 62.4267 13.0821 68.9833 6.62872ZM26.9128 6.6271L27.2439 6.29823L26.9386 5.94529L23.3937 1.84674L23.0748 1.47797L22.6981 1.78754C16.9226 6.53407 11.9097 12.6522 7.65515 20.1318L7.65512 20.1318L7.65259 20.1363C2.89526 28.7067 0.500003 36.9234 0.500004 44.7797C0.500004 49.3503 2.03799 53.285 5.10993 56.5562C8.18685 59.9603 11.9887 61.6738 16.4855 61.6738C20.9823 61.6738 24.7841 59.9603 27.861 56.5563C30.9304 53.2879 32.4684 49.3572 32.471 44.7915C32.7519 38.7917 31.5948 34.1891 28.8969 31.0838C26.2719 28.0624 22.2692 26.5501 16.9911 26.46C17.1433 19.6891 20.4168 13.08 26.9128 6.6271Z" stroke="black"/>
</svg>
