<svg width="227" height="57" viewBox="0 0 227 57" fill="none" xmlns="http://www.w3.org/2000/svg">
<g clip-path="url(#clip0_1_870)">
<path d="M74.5918 38.1945L78.8127 14.3213H94.1072L93.2609 19.1057H83.3358L82.5193 23.7244H91.9845L91.1681 28.2398H81.7165L80.8266 33.3747H91.7124L90.8687 38.1945H74.5918Z" fill="#F7B50C"/>
<path d="M91.0375 38.3978H74.3496L78.6495 14.1279H94.3576L93.4405 19.3199H83.5073L82.7697 23.531H92.224L91.3396 28.4486H81.888L81.0716 33.1651H91.9437L91.0375 38.3978ZM74.8395 37.9902H90.6973L91.4702 33.578H80.5953L81.5424 28.0465H90.9994L91.7342 23.9386H82.2826L83.1643 18.9123H93.0894L93.8623 14.5355H78.9842L74.8395 37.9902Z" fill="#F7B50C"/>
<path d="M110.918 12.7129H116.32L111.797 38.1944H106.833L107.238 35.9014H107.138C106.544 36.7641 105.728 37.4511 104.775 37.8902C103.728 38.3751 102.585 38.6175 101.431 38.5993C100.431 38.6139 99.4382 38.4291 98.5107 38.0559C97.6792 37.7208 96.9307 37.2091 96.3173 36.5562C95.7126 35.8991 95.2495 35.1251 94.9565 34.2821C94.6317 33.3505 94.4715 32.3696 94.483 31.3832C94.4734 30.0047 94.7074 28.6352 95.1743 27.3378C95.6073 26.129 96.2595 25.01 97.0983 24.0368C97.9136 23.0963 98.9141 22.3334 100.037 21.7954C101.201 21.2418 102.477 20.963 103.766 20.9803C104.877 20.9521 105.978 21.1946 106.974 21.6867C107.814 22.1032 108.516 22.7533 108.994 23.5587H109.062L110.918 12.7129ZM99.8442 30.6796C99.8133 31.6015 100.127 32.502 100.723 33.2063C101.307 33.8801 102.174 34.2169 103.322 34.2169C103.976 34.2212 104.623 34.0772 105.214 33.7958C105.795 33.5181 106.313 33.1221 106.732 32.633C107.167 32.1257 107.505 31.5427 107.728 30.9132C107.966 30.2545 108.085 29.5593 108.082 28.8593C108.117 27.9194 107.778 27.0039 107.138 26.3136C106.804 25.9769 106.403 25.7144 105.961 25.543C105.519 25.3717 105.045 25.2954 104.571 25.3192C103.896 25.3099 103.227 25.4539 102.615 25.7403C102.042 26.011 101.535 26.4021 101.129 26.8868C100.712 27.3913 100.391 27.9678 100.182 28.5876C99.9541 29.2615 99.8401 29.9684 99.8442 30.6796Z" fill="#F7B50C"/>
<path d="M101.433 38.8028C100.409 38.8197 99.3914 38.6351 98.4389 38.2594C97.5798 37.912 96.8064 37.3827 96.172 36.7081C95.5477 36.03 95.0681 35.2323 94.7623 34.3634C94.431 33.4097 94.2671 32.406 94.2778 31.3966C94.2662 29.9913 94.5039 28.595 94.98 27.2724C95.422 26.039 96.0871 24.8971 96.9421 23.9035C97.7742 22.9454 98.7927 22.1662 99.9357 21.6132C101.125 21.0474 102.428 20.7585 103.746 20.7682C104.89 20.7398 106.024 20.9907 107.05 21.499C107.792 21.8747 108.433 22.4214 108.922 23.0938L110.732 12.498H116.55L111.954 38.3871H106.592L106.924 36.507C106.355 37.1648 105.653 37.6953 104.864 38.0638C103.79 38.5642 102.617 38.8168 101.433 38.8028ZM103.762 21.1757C102.502 21.1667 101.256 21.4455 100.121 21.9908C99.0254 22.5208 98.0487 23.2666 97.2497 24.1833C96.4272 25.1381 95.7879 26.2359 95.3637 27.4218C94.9044 28.6965 94.6741 30.042 94.6833 31.3966C94.6724 32.3588 94.828 33.3156 95.1433 34.2249C95.4303 35.0425 95.8813 35.7931 96.4686 36.431C97.0625 37.0624 97.7868 37.5574 98.5913 37.8818C99.4945 38.2419 100.46 38.4202 101.433 38.4062C102.559 38.425 103.675 38.19 104.698 37.7188C105.617 37.2928 106.405 36.6297 106.982 35.7979L107.041 35.7083H107.499L107.093 38.0013H111.641L116.093 12.9273H111.094L109.235 23.7812H108.878L108.818 23.678C108.359 22.9011 107.684 22.2736 106.875 21.8713C105.91 21.3905 104.841 21.1518 103.762 21.1757ZM103.324 34.4259C102.118 34.4259 101.193 34.0619 100.57 33.3392C99.9423 32.5973 99.6117 31.6499 99.6418 30.6794C99.6364 29.9457 99.7551 29.2164 99.9929 28.5222C100.208 27.8786 100.541 27.2801 100.973 26.7562C101.398 26.2497 101.928 25.841 102.527 25.5581C103.166 25.2578 103.866 25.1063 104.573 25.1152C105.076 25.0905 105.578 25.1718 106.047 25.3539C106.516 25.536 106.941 25.8148 107.294 26.1721C107.971 26.9002 108.331 27.8664 108.296 28.8591C108.299 29.583 108.175 30.3019 107.931 30.9837C107.698 31.6355 107.347 32.2394 106.897 32.7659C106.458 33.2757 105.918 33.6892 105.311 33.9804C104.691 34.2769 104.011 34.4292 103.324 34.4259ZM104.573 25.5282C103.927 25.5197 103.288 25.6572 102.703 25.9303C102.159 26.1874 101.675 26.5579 101.286 27.017C100.886 27.5008 100.578 28.0532 100.377 28.6471C100.157 29.2993 100.047 29.9832 100.05 30.6712C100.021 31.5441 100.316 32.3968 100.88 33.0648C101.424 33.6897 102.241 34.0048 103.329 34.0048C103.953 34.0088 104.569 33.8713 105.131 33.6027C105.688 33.3373 106.182 32.9588 106.584 32.4915C107.003 32.0033 107.329 31.4425 107.545 30.8369C107.772 30.1995 107.887 29.5276 107.885 28.8509C107.918 27.9635 107.598 27.0991 106.995 26.4465C106.679 26.1311 106.3 25.8858 105.883 25.7266C105.465 25.5674 105.019 25.498 104.573 25.5227V25.5282Z" fill="#F7B50C"/>
<path d="M127.493 35.768C126.947 36.6041 126.214 37.3018 125.351 37.8056C124.405 38.3615 123.324 38.6438 122.227 38.6207C121.408 38.639 120.593 38.4959 119.829 38.1996C119.197 37.9484 118.627 37.5637 118.158 37.0721C117.723 36.605 117.395 36.0487 117.197 35.442C116.993 34.8167 116.89 34.1627 116.893 33.5048C116.893 33.2114 116.893 32.9126 116.925 32.611C116.95 32.2995 116.996 31.99 117.061 31.6845L118.852 21.4039H124.295L122.662 30.5027C122.619 30.7526 122.583 30.9917 122.561 31.2281C122.54 31.4645 122.529 31.6954 122.529 31.9182C122.516 32.486 122.688 33.0425 123.019 33.5048C123.343 33.954 123.923 34.1786 124.758 34.1786C125.219 34.1852 125.676 34.0808 126.088 33.8743C126.482 33.6717 126.832 33.3949 127.12 33.0593C127.423 32.7041 127.673 32.3069 127.863 31.8801C128.066 31.4278 128.213 30.9525 128.301 30.4646L129.934 21.3984H135.333L132.971 34.7111C132.882 35.1368 132.787 35.6874 132.685 36.363C132.584 37.0386 132.51 37.6453 132.465 38.1833H127.324C127.346 37.9116 127.387 37.5258 127.444 37.0205C127.501 36.5151 127.55 36.094 127.596 35.7571L127.493 35.768Z" fill="#F7B50C"/>
<path d="M122.228 38.8358C121.381 38.8539 120.54 38.7052 119.751 38.3984C119.093 38.1353 118.499 37.7341 118.009 37.222C117.553 36.7311 117.21 36.147 117.002 35.5104C116.793 34.8644 116.688 34.1896 116.689 33.5108C116.689 33.2119 116.689 32.9049 116.725 32.6006C116.748 32.2799 116.795 31.9612 116.864 31.647L118.679 21.2061H124.53L122.867 30.5466C122.824 30.7885 122.791 31.0248 122.769 31.253C122.747 31.4813 122.737 31.7095 122.737 31.9241C122.725 32.4486 122.882 32.9629 123.186 33.3912C123.471 33.7825 124.002 33.9808 124.761 33.9808C125.19 33.9908 125.615 33.8976 126 33.7091C126.369 33.5205 126.698 33.2621 126.968 32.9484C127.26 32.6086 127.499 32.2278 127.679 31.8182C127.875 31.3844 128.018 30.9281 128.103 30.4597L129.755 21.2224H135.571L133.165 34.7741C133.075 35.2007 132.98 35.7522 132.879 36.4205C132.779 37.0889 132.705 37.7002 132.662 38.2273L132.645 38.4147H127.104L127.123 38.1947C127.145 37.923 127.183 37.5345 127.24 37.0264C127.268 36.7955 127.289 36.5835 127.314 36.3879C126.796 37.0313 126.167 37.5761 125.455 37.9963C124.478 38.5685 123.361 38.8591 122.228 38.8358ZM119.024 21.6136L117.264 31.7231C117.199 32.0222 117.154 32.3253 117.13 32.6305C117.109 32.9275 117.098 33.221 117.098 33.5108C117.095 34.1473 117.194 34.7801 117.392 35.3854C117.58 35.9647 117.893 36.4959 118.309 36.9422C118.758 37.4153 119.303 37.786 119.909 38.0289C120.648 38.3141 121.436 38.4517 122.228 38.4337C123.288 38.4521 124.333 38.1766 125.246 37.6377C126.082 37.1486 126.792 36.4725 127.322 35.6625L127.382 35.5702H127.828L127.798 35.8011C127.752 36.1353 127.703 36.5564 127.646 37.059C127.605 37.4394 127.573 37.7491 127.548 37.9963H132.262C132.308 37.5046 132.376 36.9503 132.466 36.3499C132.569 35.6734 132.667 35.1137 132.757 34.6872L135.076 21.619H130.084L128.495 30.5168C128.404 31.0217 128.252 31.5135 128.041 31.9812C127.844 32.4259 127.584 32.8396 127.268 33.2092C126.962 33.5612 126.593 33.8525 126.179 34.0677C125.737 34.2881 125.248 34.3999 124.753 34.3938C123.852 34.3938 123.213 34.1384 122.848 33.6357C122.493 33.1385 122.308 32.5402 122.32 31.9295C122.32 31.6986 122.32 31.4595 122.353 31.2204C122.385 30.9814 122.413 30.7314 122.459 30.4787L124.035 21.619L119.024 21.6136Z" fill="#F7B50C"/>
<path d="M151.06 26.0039C150.515 24.7921 149.103 23.9146 147.38 23.9146C143.298 23.9146 140.392 27.4194 140.392 31.6332C140.392 34.5321 142.283 36.6893 145.489 36.6893C146.368 36.6983 147.238 36.5194 148.042 36.1647C148.845 35.81 149.564 35.2876 150.148 34.6327L151.601 35.8797C149.968 37.5316 147.987 38.6102 145.32 38.6102C140.83 38.6102 137.994 35.8797 137.994 31.8343C137.994 26.4413 141.742 22.0264 147.448 22.0264C149.778 22.0264 152.039 22.8686 153.052 24.6889L151.06 26.0039Z" fill="#5C5C5C"/>
<path d="M145.323 38.8028C140.751 38.8028 137.793 36.0642 137.793 31.8232C137.793 26.0227 141.856 21.8115 147.451 21.8115C150.107 21.8115 152.268 22.8467 153.234 24.58L153.324 24.7457L150.976 26.2971L150.878 26.077C150.333 24.8789 148.973 24.1073 147.383 24.1073C143.516 24.1073 140.599 27.3376 140.599 31.6222C140.599 34.57 142.52 36.4745 145.497 36.4745C146.348 36.4812 147.189 36.3071 147.967 35.9637C148.745 35.6203 149.44 35.1156 150.007 34.483L150.14 34.339L151.906 35.855L151.754 36.0099C149.901 37.89 147.8 38.8028 145.323 38.8028ZM147.451 22.2299C142.093 22.2299 138.198 26.2699 138.198 31.8341C138.198 35.8252 140.996 38.4062 145.32 38.4062C147.617 38.4062 149.577 37.5911 151.308 35.8904L150.17 34.915C149.565 35.5441 148.838 36.0424 148.032 36.379C147.226 36.7155 146.36 36.883 145.486 36.8712C142.316 36.8712 140.185 34.7574 140.185 31.6113C140.185 27.1692 143.345 23.6889 147.378 23.6889C149.035 23.6889 150.48 24.4659 151.139 25.6858L152.772 24.599C151.855 23.1129 149.865 22.2191 147.446 22.2191L147.451 22.2299Z" fill="#5C5C5C"/>
<path d="M166.659 27.0392C166.659 24.7815 165.273 23.9039 162.944 23.9039C161.133 23.9654 159.397 24.6355 158.015 25.8058L157.003 24.287C158.522 22.9286 160.987 22.0293 163.181 22.0293C166.174 22.0293 168.784 23.3877 168.784 26.5801C168.771 27.1436 168.726 27.7059 168.651 28.2645L167.502 34.6682C167.295 35.8352 167.17 37.0155 167.129 38.2001H165.105C165.108 37.3423 165.175 36.486 165.306 35.6381H165.241C163.417 37.7274 161.763 38.5044 159.128 38.5044C157.003 38.5044 154.336 37.491 154.336 34.4291C154.336 29.3757 160.682 28.5335 166.49 28.5335C166.59 28.0413 166.646 27.5413 166.659 27.0392ZM165.646 30.2397C161.627 30.2397 156.698 30.8483 156.698 34.1493C156.698 36.138 158.331 36.6787 159.939 36.6787C163.181 36.6787 165.442 34.353 165.948 31.5547L166.185 30.2397H165.646Z" fill="#5C5C5C"/>
<path d="M159.129 38.7023C156.824 38.7023 154.133 37.5802 154.133 34.4178C154.133 29.0085 161.034 28.332 166.317 28.3184C166.4 27.8968 166.447 27.4686 166.455 27.0388C166.455 25.0392 165.34 24.1073 162.945 24.1073C160.991 24.1073 159.135 25.0989 158.15 25.9466L157.973 26.096L156.735 24.2404L156.868 24.1209C158.425 22.7407 160.95 21.8115 163.182 21.8115C165.99 21.8115 168.989 23.0613 168.989 26.5661C168.976 27.1405 168.931 27.7138 168.853 28.2831L167.705 34.6976C167.499 35.8548 167.375 37.0251 167.335 38.1997V38.4035H164.902V38.1997C164.903 37.524 164.945 36.8491 165.027 36.1783C163.288 38.0068 161.655 38.7023 159.129 38.7023ZM166.477 28.726C158.313 28.726 154.527 30.5354 154.527 34.4314C154.527 37.2923 156.998 38.3084 159.116 38.3084C161.682 38.3084 163.296 37.5504 165.073 35.5127L165.133 35.4421H165.533L165.498 35.6784C165.377 36.4481 165.311 37.2252 165.299 38.0041H166.915C166.969 36.8745 167.094 35.7493 167.288 34.6352L168.458 28.2152C168.533 27.6684 168.577 27.1178 168.589 26.5661C168.589 23.8492 166.57 22.2191 163.19 22.2191C161.044 22.2516 158.968 22.9865 157.282 24.311L158.068 25.4902C159.157 24.6343 160.999 23.6998 162.953 23.6998C165.552 23.6998 166.872 24.8218 166.872 27.0388C166.86 27.5482 166.803 28.0555 166.7 28.5548L166.67 28.726H166.477ZM159.94 36.8711C157.72 36.8711 156.484 35.9121 156.484 34.1543C156.484 31.4374 159.562 30.0409 165.636 30.0409H166.42L166.148 31.595C165.587 34.6977 163.032 36.8711 159.94 36.8711ZM165.655 30.4322C159.853 30.4322 156.911 31.6792 156.911 34.138C156.911 36.0588 158.563 36.4636 159.949 36.4636C162.841 36.4636 165.228 34.426 165.756 31.508L165.949 30.4213L165.655 30.4322Z" fill="#5C5C5C"/>
<path d="M181.479 24.3085H177.19L175.535 33.5459C175.474 33.905 175.44 34.2683 175.435 34.6327C175.435 36.1161 176.251 36.4856 177.394 36.4856C178.034 36.4856 178.913 36.2845 179.318 35.9802L179.046 37.9364C178.472 38.2379 177.492 38.4064 176.444 38.4064C174.959 38.4064 173.07 37.8005 173.07 35.2738C173.072 34.9094 173.106 34.5458 173.171 34.1871L174.926 24.3113H171.66L172.03 22.4094H175.233L176.009 17.9619H178.271L177.495 22.4094H181.849L181.479 24.3085Z" fill="#5C5C5C"/>
<path d="M176.447 38.5988C175.359 38.5988 172.868 38.2755 172.868 35.2625C172.872 34.889 172.906 34.5164 172.972 34.1486L174.686 24.5118H171.404L171.859 22.2161H175.062L175.838 17.7686H178.526L177.751 22.2161H182.105L181.653 24.5118H177.362L175.729 33.578C175.669 33.9227 175.636 34.2715 175.631 34.6213C175.631 35.7923 176.14 36.2705 177.386 36.2705C178.017 36.2765 178.638 36.1163 179.188 35.8059L179.588 35.5125L179.237 38.0554L179.144 38.1043C178.548 38.4195 177.566 38.5988 176.447 38.5988ZM171.902 24.1016H175.168L173.372 34.2165C173.31 34.5609 173.277 34.9099 173.274 35.2598C173.274 37.8082 175.261 38.1886 176.444 38.1886C177.268 38.2163 178.089 38.0796 178.858 37.7865L179.057 36.3411C178.527 36.5542 177.963 36.6675 177.391 36.6753C176.463 36.6753 175.214 36.4634 175.214 34.6186C175.219 34.246 175.253 33.8744 175.318 33.5074L177.019 24.1016H181.31L181.602 22.6209H177.247L178.023 18.1734H176.175L175.399 22.6209H172.188L171.902 24.1016Z" fill="#5C5C5C"/>
<path d="M185.123 38.194H182.861L185.664 22.4198H187.926L185.123 38.194ZM187.689 17.937C187.486 17.9472 187.282 17.9152 187.091 17.8431C186.901 17.7709 186.727 17.6602 186.581 17.5178C186.436 17.3754 186.321 17.2044 186.245 17.0157C186.168 16.8269 186.132 16.6244 186.138 16.421C186.136 15.9885 186.305 15.5728 186.608 15.2637C186.911 14.9546 187.324 14.7769 187.757 14.7691C187.961 14.7636 188.164 14.8002 188.353 14.8767C188.542 14.9532 188.713 15.0679 188.856 15.2135C188.999 15.3592 189.109 15.5327 189.182 15.7232C189.254 15.9137 189.286 16.117 189.276 16.3204C189.277 16.744 189.112 17.1511 188.815 17.4537C188.518 17.7562 188.113 17.9298 187.689 17.937Z" fill="#5C5C5C"/>
<path d="M185.293 38.3983H182.607L185.481 22.2166H188.159L185.293 38.3983ZM183.116 37.9908H184.964L187.686 22.6241H185.838L183.116 37.9908ZM187.699 18.1413C187.469 18.1514 187.239 18.1141 187.023 18.0317C186.808 17.9493 186.612 17.8236 186.447 17.6623C186.283 17.501 186.153 17.3076 186.066 17.0941C185.98 16.8807 185.938 16.6517 185.944 16.4215C185.94 15.9342 186.129 15.465 186.471 15.1171C186.813 14.7692 187.279 14.5709 187.767 14.5659C187.998 14.5605 188.227 14.6024 188.441 14.6892C188.655 14.7759 188.849 14.9056 189.01 15.0702C189.172 15.2347 189.298 15.4307 189.38 15.6458C189.463 15.861 189.5 16.0908 189.49 16.321C189.492 16.5587 189.447 16.7945 189.357 17.0147C189.267 17.2349 189.135 17.4354 188.968 17.6045C188.8 17.7736 188.601 17.908 188.382 18.0001C188.162 18.0923 187.926 18.1402 187.688 18.1413H187.699ZM187.767 14.9734C187.389 14.9833 187.029 15.1402 186.765 15.4106C186.501 15.681 186.353 16.0437 186.352 16.4215C186.346 16.5984 186.376 16.7746 186.442 16.9389C186.508 17.1031 186.608 17.2518 186.735 17.3754C186.861 17.499 187.013 17.5947 187.179 17.6564C187.345 17.7182 187.522 17.7445 187.699 17.7338C188.069 17.7253 188.42 17.5727 188.679 17.3086C188.937 17.0446 189.082 16.6901 189.082 16.321C189.093 16.1433 189.066 15.9653 189.003 15.7986C188.941 15.6318 188.844 15.48 188.719 15.353C188.594 15.2259 188.444 15.1265 188.278 15.0611C188.112 14.9958 187.935 14.9659 187.756 14.9734H187.767Z" fill="#5C5C5C"/>
<path d="M191.199 31.7556C191.199 26.4659 195.115 22.0156 200.585 22.0156C204.874 22.0156 207.879 24.7814 207.879 28.8241C207.879 34.2171 203.995 38.6049 198.493 38.6049C194.239 38.5994 191.199 35.801 191.199 31.7556ZM200.452 23.9039C196.501 23.9039 193.597 27.4765 193.597 31.6225C193.597 34.5214 195.502 36.6786 198.629 36.6786C202.646 36.6786 205.514 33.1467 205.514 28.96C205.514 26.0937 203.625 23.9039 200.452 23.9039Z" fill="#5C5C5C"/>
<path d="M198.496 38.8028C194.081 38.8028 190.998 35.9039 190.998 31.7553C190.998 26.1802 195.211 21.8115 200.588 21.8115C205.003 21.8115 208.086 24.6968 208.086 28.8238C208.086 34.5129 203.963 38.8028 198.496 38.8028ZM200.588 22.2299C195.439 22.2299 191.406 26.4193 191.406 31.7662C191.406 35.6757 194.324 38.4062 198.482 38.4062C203.715 38.4062 207.664 34.2901 207.664 28.8346C207.678 24.9359 204.763 22.2191 200.588 22.2191V22.2299ZM198.632 36.901C195.499 36.901 193.396 34.7873 193.396 31.6412C193.396 27.1991 196.495 23.7188 200.455 23.7188C203.604 23.7188 205.721 25.8325 205.721 28.9786C205.721 33.4017 202.608 36.8712 198.632 36.8712V36.901ZM200.455 24.1317C196.724 24.1317 193.804 27.4327 193.804 31.6466C193.804 34.5482 195.744 36.4989 198.632 36.4989C202.379 36.4989 205.313 33.1979 205.313 28.9841C205.313 26.058 203.362 24.1018 200.455 24.1018V24.1317Z" fill="#5C5C5C"/>
<path d="M216.252 22.4204C216.151 23.2627 216.015 24.4418 215.881 25.1183H215.947C216.515 24.1907 217.307 23.4204 218.251 22.8783C219.195 22.3362 220.26 22.0395 221.349 22.0156C224.759 22.0156 226.792 23.8712 226.792 26.8354C226.782 27.4014 226.726 27.9657 226.623 28.5225L224.9 38.1946H222.639L224.19 29.4653C224.32 28.8102 224.388 28.1444 224.394 27.4765C224.394 25.2867 223.482 23.9039 220.883 23.9039C218.453 23.9039 215.819 25.8926 215.076 30.1065L213.658 38.1946H211.396L213.557 25.8926C213.726 25.0504 213.963 23.499 214.063 22.4204H216.252Z" fill="#5C5C5C"/>
<path d="M225.062 38.398H222.384L223.982 29.4323C224.108 28.7887 224.174 28.1348 224.18 27.4789C224.18 25.1804 223.13 24.11 220.874 24.11C218.618 24.11 216.002 25.9765 215.268 30.1442L213.82 38.4008H211.145L213.36 25.857C213.523 25.0419 213.763 23.4905 213.863 22.4011L213.882 22.2163H216.492L216.435 22.6918C216.37 23.2352 216.296 23.8573 216.217 24.398C216.825 23.6098 217.603 22.9682 218.493 22.5205C219.383 22.0728 220.362 21.8305 221.358 21.8115C224.839 21.8115 227 23.7378 227 26.835C226.989 27.412 226.932 27.9871 226.828 28.5548L225.062 38.398ZM222.885 37.9905H224.733L226.425 28.4814C226.526 27.9372 226.581 27.3856 226.591 26.8323C226.591 23.9415 224.635 22.2136 221.358 22.2136C220.304 22.2385 219.274 22.5269 218.36 23.0523C217.447 23.5777 216.68 24.3234 216.13 25.2212L216.07 25.3163H215.64L215.689 25.0718C215.809 24.4686 215.932 23.4416 216.03 22.6266V22.6076H214.25C214.138 23.6943 213.912 25.1397 213.757 25.9167L211.64 37.9742H213.488L214.876 30.0545C215.651 25.6532 218.452 23.6835 220.885 23.6835C223.383 23.6835 224.599 24.9196 224.599 27.4599C224.593 28.1404 224.524 28.819 224.392 29.4867L222.885 37.9905Z" fill="#5C5C5C"/>
<path d="M11.8648 6.5806C11.8648 6.5806 36.8749 6.46921 35.0542 29.4974C35.0542 29.4974 34.9835 30.2636 34.9644 30.4266C35.0025 30.125 40.2386 1.23108 40.4236 0.204102H0.195312V56.7966H2.86232L11.8648 6.5806Z" fill="#F7B50C"/>
<path d="M3.0344 57H0V0H40.6692L40.6256 0.239086C40.4052 1.45625 35.2236 30.0459 35.1828 30.4507L34.7773 30.4018C34.7963 30.2388 34.8671 29.4781 34.8671 29.4781C35.3733 23.0554 33.8166 17.8444 30.2406 13.9919C24.0085 7.28937 13.5147 6.81664 12.056 6.78403L3.0344 57ZM0.400052 56.5925H2.69422L11.7022 6.3765H11.8764C12.1131 6.3765 23.769 6.44714 30.5291 13.7121C33.7268 17.1489 35.3488 21.6399 35.3624 27.0818C36.6469 19.9473 39.6187 3.54008 40.1875 0.402096H0.400052V56.5925Z" fill="#F7B50C"/>
<path d="M54.0505 0.204102C53.8219 1.48375 44.9963 50.5396 44.9963 50.5396C42.5144 50.6836 20.5034 51.2406 21.5021 28.8481C21.5021 28.8073 17.5533 51.0096 16.5273 56.7966H56.8781V0.204102H54.0505Z" fill="#F7B50C"/>
<path d="M57.085 57H16.2852L16.326 56.7609C16.8403 53.8702 18.0786 46.8824 19.1944 40.6173C19.7387 37.4847 20.283 34.5342 20.6612 32.3661C20.8545 31.2794 21.0123 30.3937 21.1239 29.7742C21.2055 29.3232 21.2545 29.0515 21.2953 28.8885C21.294 28.8722 21.294 28.8559 21.2953 28.8396C21.3498 28.6413 21.3906 28.6413 21.4885 28.644H21.7008V28.8559C21.4069 35.5313 23.1486 40.7748 26.8715 44.448C33.1309 50.5963 43.0859 50.4252 44.833 50.3437C44.8575 50.1725 44.9038 49.9144 44.9746 49.5286L53.8846 0H57.0877L57.085 57ZM16.7723 56.5925H56.6768V0.407531H54.2275L51.8761 13.4784C49.2254 28.2066 45.2222 50.4659 45.2032 50.5719L45.1759 50.7322H45.0127C43.8234 50.8028 33.1989 51.2212 26.6021 44.7306C23.2439 41.4269 21.4613 36.8897 21.2844 31.2196C20.4408 35.9225 18.5059 46.8742 16.7723 56.5925Z" fill="#F7B50C"/>
</g>
<defs>
<clipPath id="clip0_1_870">
<rect width="227" height="57" fill="white"/>
</clipPath>
</defs>
</svg>
